<?xml version="1.0" encoding="UTF-8"?>
<svg version="1.1" xmlns="http://www.w3.org/2000/svg" width="1254" height="1254">
<path d="M0 0 C413.82 0 827.64 0 1254 0 C1254 413.82 1254 827.64 1254 1254 C840.18 1254 426.36 1254 0 1254 C0 840.18 0 426.36 0 0 Z " fill="#FDFDFD" transform="translate(0,0)"/>
<path d="M0 0 C1.39942104 -0.00128164 1.39942104 -0.00128164 2.82711321 -0.00258917 C5.94242485 -0.00423174 9.05768224 0.00125736 12.17298889 0.00672913 C14.41044615 0.00701129 16.64790351 0.0068527 18.88536072 0.00628662 C24.95294263 0.00599978 31.02050476 0.01187831 37.08808208 0.01886058 C43.43153327 0.02511287 49.77498492 0.0256994 56.11843872 0.02688599 C66.76341636 0.02964069 77.4083862 0.03588643 88.05335999 0.04481506 C99.0155992 0.05400022 109.97783645 0.06107565 120.94007874 0.06532288 C121.61628767 0.0655856 122.2924966 0.06584832 122.98919671 0.06611901 C126.38168643 0.06742409 129.77417617 0.06868778 133.16666591 0.06993091 C161.29125583 0.08029024 189.41583773 0.09797151 217.54042053 0.12025452 C216.42855576 1.88248238 215.3147337 3.64347541 214.2000885 5.40394592 C213.58003937 6.38473114 212.95999023 7.36551636 212.32115173 8.37602234 C210.24806411 11.57079635 208.03732284 14.51640077 205.66542053 17.49525452 C201.51546971 22.7781601 197.6630895 28.21500757 193.86854553 33.76087952 C188.40624487 41.69843057 182.5712167 49.38133951 176.83338928 57.12025452 C175.88919128 58.39618469 175.88919128 58.39618469 174.92591858 59.69789124 C173.69379559 61.36252561 172.45966737 63.02567815 171.22328186 64.68714905 C170.65762512 65.45140198 170.09196838 66.21565491 169.50917053 67.00306702 C169.00836975 67.67740784 168.50756897 68.35174866 167.99159241 69.04652405 C166.4422447 71.12405523 166.4422447 71.12405523 165.37058926 73.71201324 C163.54042053 76.12025452 163.54042053 76.12025452 160.54984379 76.73714447 C159.31455653 76.73341576 158.07926928 76.72968704 156.80654907 76.72584534 C155.77409849 76.73308711 155.77409849 76.73308711 154.72079033 76.74047518 C152.40816859 76.7507355 150.09729455 76.72535759 147.7848053 76.70033264 C146.12897563 76.70059922 144.47314499 76.70313127 142.81732178 76.70776367 C139.24693118 76.71317598 135.67703365 76.70308754 132.10670662 76.68127441 C126.45322348 76.64743512 120.80015889 76.65149463 115.14660645 76.66139221 C102.11308519 76.67839934 89.07977556 76.64567995 76.0463028 76.6124649 C64.12515966 76.58256748 52.20425028 76.56332285 40.28307384 76.58413076 C34.6721151 76.59249432 29.0619083 76.57681824 23.4510566 76.54233551 C19.94432234 76.52579212 16.43782838 76.53008556 12.93107796 76.53978157 C11.31547323 76.54003977 9.69983932 76.53184192 8.08433151 76.51414299 C-3.72473309 76.39116113 -14.94233894 77.81314062 -23.93223572 86.31947327 C-30.15415725 93.65529379 -34.02672699 101.71964605 -33.76426697 111.40150452 C-32.83874475 119.66001047 -30.00460638 125.53791653 -23.55723572 130.78041077 C-19.64187549 133.28128331 -16.18571081 134.36893433 -11.54870605 134.38526917 C-10.5860231 134.39354233 -9.62334015 134.40181549 -8.63148499 134.41033936 C-7.06441299 134.4088665 -7.06441299 134.4088665 -5.46568298 134.40736389 C-4.35602676 134.41419693 -3.24637054 134.42102997 -2.10308838 134.42807007 C0.30588189 134.44165324 2.71488097 134.45070962 5.1238842 134.45578003 C8.9465926 134.46408069 12.76906344 134.4846011 16.59170532 134.50831604 C24.72040922 134.55654923 32.8491344 134.58951172 40.97792053 134.62025452 C50.36993226 134.65587415 59.76181381 134.69818532 69.15371895 134.75619507 C72.90132353 134.77611808 76.64883814 134.78455643 80.39648438 134.79249573 C94.55070591 134.85573466 108.30961993 135.13193188 121.97792053 139.24525452 C122.68255432 139.45698303 123.38718811 139.66871155 124.11317444 139.88685608 C144.96384164 146.52434181 162.58050798 161.11678927 172.78651428 180.51478577 C184.64328124 204.273256 184.3851853 232.54605516 176.28382874 257.4591217 C165.1115286 290.08713797 146.58861689 316.40794812 115.40272522 332.39930725 C92.72563327 343.49409808 69.06590678 344.42899707 44.28196919 344.35238576 C40.73414291 344.34365935 37.18632278 344.34667784 33.63848877 344.34819031 C27.50819195 344.34923341 21.37793807 344.34301734 15.24765205 344.33171463 C6.38455358 344.31538403 -2.47852436 344.31024393 -11.34163625 344.30773865 C-25.72528205 344.30337334 -40.10890503 344.290096 -54.49253845 344.27113342 C-68.45575345 344.25274437 -82.41896221 344.23860271 -96.38218689 344.2301178 C-97.67561869 344.22932963 -97.67561869 344.22932963 -98.99518042 344.22852553 C-103.32150153 344.22591525 -107.64782268 344.22338788 -111.97414386 344.22090173 C-147.80263866 344.20020552 -183.63110695 344.1650119 -219.45957947 344.12025452 C-219.45957947 343.46025452 -219.45957947 342.80025452 -219.45957947 342.12025452 C-218.01939392 340.7013092 -218.01939392 340.7013092 -216.01036072 339.04212952 C-211.31239436 335.04447472 -206.98336546 330.75358964 -202.64707947 326.37025452 C-201.42734436 325.14483948 -201.42734436 325.14483948 -200.18296814 323.89466858 C-197.60604649 321.30562781 -195.03240322 318.71336715 -192.45957947 316.12025452 C-189.06670793 312.70062733 -185.67043289 309.28443303 -182.27207947 305.87025452 C-181.50726257 305.09713928 -180.74244568 304.32402405 -179.95445251 303.52748108 C-179.22008972 302.78981506 -178.48572693 302.05214905 -177.72911072 301.29212952 C-177.09593933 300.65372131 -176.46276794 300.01531311 -175.81040955 299.3575592 C-174.48385954 298.09507045 -173.13254802 296.85455383 -171.71123409 295.69979 C-167.64701636 292.35846909 -164.56941652 289.02603592 -161.55566406 284.70120239 C-154.72479861 275.53749817 -147.75911117 268.30533782 -136.08665305 266.47820598 C-123.73350048 265.0996781 -111.24915266 265.52430677 -98.8480556 265.85231662 C-93.00632433 265.98172112 -87.16459679 265.97999852 -81.32165527 265.99185181 C-70.27543831 266.03281812 -59.23361676 266.18117823 -48.1890946 266.37316233 C-31.98614631 266.65066034 -15.78185037 266.78094475 0.42299557 266.89203739 C2.21243229 266.90437016 2.21243229 266.90437016 4.03801924 266.91695207 C6.41768765 266.93328165 8.79735825 266.94929476 11.17703098 266.96498257 C18.10879242 267.01453628 25.03884223 267.10083458 31.96974862 267.2200011 C36.28481641 267.29094353 40.5999876 267.3421314 44.91536903 267.38973999 C46.90480565 267.41647444 48.89414742 267.45208603 50.88324356 267.49757576 C65.04368754 267.81705781 78.09203858 267.00564998 89.04823303 256.70228577 C94.89396486 250.51873527 98.80101212 242.95620936 98.97792053 234.37025452 C98.54697954 226.77491955 96.75961485 221.88431554 91.97792053 216.01478577 C85.02905506 210.61382462 77.33294774 209.53380458 68.77674866 209.6219635 C67.75081604 209.6164447 66.72488342 209.6109259 65.66786194 209.60523987 C63.45597235 209.5959675 61.24402935 209.59577497 59.03213501 209.60383415 C55.51440666 209.61655535 51.99745274 209.60508702 48.47975159 209.58779907 C42.26587816 209.56115431 36.05219646 209.55550049 29.83827209 209.55690002 C19.92356514 209.55913077 10.00909759 209.54460177 0.09448242 209.50131416 C-3.34062196 209.49159639 -6.77533845 209.50013347 -10.21043396 209.51000977 C-42.20086978 209.47924851 -71.2565652 202.17564711 -95.14707947 179.93275452 C-100.56152986 174.34078117 -104.46781309 167.75716729 -108.45957947 161.12025452 C-108.99711853 160.26302795 -109.53465759 159.40580139 -110.08848572 158.52259827 C-111.50583057 156.03921626 -112.54251071 153.61764541 -113.52207947 150.93275452 C-113.84305603 150.07294983 -114.16403259 149.21314514 -114.49473572 148.32728577 C-116.86197461 140.45885204 -117.7976049 132.94831374 -117.70957947 124.74525452 C-117.70281189 123.82405823 -117.69604431 122.90286194 -117.68907166 121.95375061 C-117.5862926 115.17152788 -117.0428333 108.73213842 -115.45957947 102.12025452 C-115.19145447 100.95623108 -114.92332947 99.79220764 -114.64707947 98.59291077 C-108.38547633 73.31168811 -96.22940397 52.05108389 -78.45957947 33.12025452 C-77.88336853 32.45638733 -77.30715759 31.79252014 -76.71348572 31.10853577 C-58.3892461 10.98860229 -26.64556444 -0.08995054 0 0 Z " fill="#031732" transform="translate(830.4595794677734,437.87974548339844)"/>
<path d="M0 0 C1.48489635 0.00056958 1.48489635 0.00056958 2.99979061 0.00115067 C4.13736862 -0.00084038 5.27494662 -0.00283143 6.44699669 -0.00488281 C8.34530114 -0.00051355 8.34530114 -0.00051355 10.28195518 0.00394398 C11.62750336 0.0035084 12.97305146 0.00263373 14.3185991 0.00135481 C18.03326355 -0.00089267 21.74789943 0.00313457 25.46256024 0.00813287 C29.46189837 0.01243358 33.46123477 0.01099122 37.46057457 0.0102306 C44.39541391 0.00970512 51.33024388 0.0128544 58.26508087 0.01846844 C68.29180871 0.02658024 78.31853199 0.02919833 88.34526276 0.03045643 C104.61122641 0.03264746 120.87718505 0.03930891 137.14314598 0.04875904 C152.94815874 0.05793186 168.75317015 0.06501333 184.55818504 0.06926686 C185.53168288 0.06952958 186.50518071 0.0697923 187.50817848 0.07006299 C192.39171507 0.07136798 197.27525166 0.0726317 202.15878826 0.07387489 C242.70102231 0.08424908 283.24325085 0.10186876 323.78547996 0.1241985 C321.34731733 1.97597506 318.99345319 3.6462551 316.28157371 5.069511 C307.68888123 9.67652591 300.04049535 14.52547562 292.78547996 21.1241985 C292.10485496 21.72361256 291.42422996 22.32302662 290.72297996 22.94060475 C281.74467271 31.32156494 274.73510526 41.84525411 268.97297996 52.6241985 C268.63661522 53.2506023 268.30025047 53.87700611 267.95369285 54.52239186 C264.34280148 61.54587083 261.74942777 68.71432899 258.78547996 76.1241985 C230.07547996 76.1241985 201.36547996 76.1241985 171.78547996 76.1241985 C171.12547996 79.7541985 170.46547996 83.3841985 169.78547996 87.1241985 C168.41595259 94.43085276 166.93997545 101.67872944 165.10188621 108.882011 C163.234612 116.2672938 161.43419574 123.66795537 159.64876121 131.07341725 C159.36597816 132.24628285 159.08319511 133.41914845 158.79184288 134.62755543 C158.19956348 137.08542283 157.60749147 139.54334022 157.01561302 142.00130421 C155.60739306 147.84881946 154.19714318 153.6958448 152.78675216 159.54283673 C152.31854678 161.48385411 151.85039126 163.42488352 151.38223594 165.36591297 C148.96354874 175.39180147 146.53637045 185.41558498 144.09797996 195.4366985 C143.92655479 196.14182575 143.75512962 196.84695301 143.57850975 197.57344776 C141.62312969 205.61556614 139.65651435 213.654838 137.6766085 221.6909557 C136.68360405 225.72248482 135.69283627 229.75456257 134.70207542 233.78664356 C134.00023742 236.63844246 133.2949129 239.48936275 132.58943504 242.34026295 C130.25672368 251.8104494 128.04596275 261.28856509 126.10278648 270.8471294 C124.94411706 276.52764652 123.51009638 282.10280334 121.97688621 287.694511 C118.00763824 302.28661947 114.45881136 317.00625317 111.09797996 331.7491985 C108.12230441 344.79076531 105.0260465 357.80293427 101.91047996 370.8116985 C101.64967643 371.90081532 101.38887291 372.98993214 101.12016624 374.1120525 C97.62158625 388.70060135 94.038805 403.26161843 90.19612449 417.76360279 C88.71249954 423.38333242 87.36610218 428.97927632 86.27327293 434.68767506 C85.3783108 439.15800641 84.24944321 443.57293524 83.16047996 447.9991985 C79.10916058 464.64843849 75.46372374 481.38945379 71.78547996 498.1241985 C67.83747418 498.21672668 65.52021993 497.77561158 61.97297996 495.9991985 C57.58197237 493.89687258 53.19205602 492.17105778 48.59797996 490.5616985 C37.19514303 486.43178917 26.50821412 480.7449443 15.78547996 475.1241985 C14.81819969 474.62629811 13.85091942 474.12839772 12.85432762 473.61540943 C10.14691571 472.21149703 7.46393538 470.76994874 4.78547996 469.3116985 C3.97232322 468.89251148 3.15916649 468.47332447 2.32136863 468.04143482 C1.58765037 467.62917652 0.85393211 467.21691822 0.09797996 466.79216725 C-0.54526222 466.44436207 -1.18850441 466.09655689 -1.85123879 465.73821217 C-4.07091493 463.11029688 -3.36211936 460.46409447 -3.21452004 457.1241985 C-2.84351986 454.9814518 -2.39921492 452.85042156 -1.89201027 450.73577076 C-1.59950386 449.49895054 -1.30699745 448.26213032 -1.00562721 446.9878307 C-0.6782412 445.63872663 -0.35073284 444.28965224 -0.02311379 442.94060475 C0.31763815 441.51190645 0.65765695 440.08303314 0.9969973 438.65399891 C1.72473142 435.59571114 2.45726114 432.5386285 3.19365257 429.48241383 C4.36096148 424.63746294 5.51770688 419.79003037 6.67244285 414.94206959 C7.86318942 409.94460171 9.05440398 404.94725035 10.24914879 399.95073658 C12.8259729 389.17205776 15.37848738 378.38798276 17.90266746 367.59685475 C18.06422325 366.90619419 18.22577904 366.21553364 18.39223045 365.50394398 C19.19031647 362.09113151 19.98778047 358.6781741 20.78486961 355.26512867 C25.37459744 335.61361689 29.99094667 315.96873147 34.68898338 296.34279591 C37.024598 286.58577256 39.32641237 276.8218569 41.58235496 267.0460735 C41.81476387 266.04022709 42.04717277 265.03438069 42.28662437 263.99805409 C43.4133678 259.11959477 44.53602141 254.24025387 45.65193504 249.35930592 C46.05179424 247.62335601 46.45177141 245.88743326 46.85188621 244.15154225 C47.12455314 242.9487563 47.12455314 242.9487563 47.4027285 241.72167164 C48.67206739 236.23761107 48.67206739 236.23761107 49.78547996 235.1241985 C50.21550005 232.94316136 50.60204978 230.75355868 50.97297996 228.5616985 C52.45451361 220.17967074 54.5012063 211.96641843 56.62800926 203.72746998 C58.05434845 198.17567643 59.32835237 192.64145867 60.3535952 187.00066334 C60.78547996 185.1241985 60.78547996 185.1241985 61.78547996 184.1241985 C62.11181579 182.29671786 62.39599823 180.46165053 62.66047996 178.6241985 C63.2673354 174.78832868 63.97215289 171.21646223 65.28547996 167.5616985 C67.09631773 162.52047176 67.90831975 157.39465689 68.78547996 152.1241985 C69.73423293 146.6318763 70.9701473 141.37700239 72.66047996 136.0616985 C74.28977196 130.91240624 75.674421 125.75332782 76.91047996 120.4991985 C77.06887352 119.83138355 77.22726707 119.16356861 77.39046043 118.47551686 C78.72142724 112.71102001 79.7237466 106.96373198 80.78547996 101.1241985 C83.75547996 88.7491985 83.75547996 88.7491985 86.78547996 76.1241985 C50.15547996 76.1241985 13.52547996 76.1241985 -24.21452004 76.1241985 C-23.09084854 67.13482652 -23.09084854 67.13482652 -22.04264504 63.8585735 C-21.79659523 63.07176197 -21.55054543 62.28495045 -21.29703957 61.47429615 C-21.02230812 60.61626393 -20.74757668 59.7582317 -20.46452004 58.8741985 C-17.86286922 50.5601336 -15.34699843 42.22544555 -12.89420754 33.866386 C-12.60312111 32.87521778 -12.31203469 31.88404957 -12.01212746 30.86284596 C-10.82172634 26.80733678 -9.63220394 22.75158177 -8.44755226 18.69438893 C-7.60445502 15.80818094 -6.75746604 12.92313943 -5.90983254 10.038261 C-5.65281563 9.15387348 -5.39579872 8.26948597 -5.13099343 7.35829884 C-3.01322094 0.16899261 -3.01322094 0.16899261 0 0 Z " fill="#0157D5" transform="translate(448.2145200371742,437.8758015036583)"/>
<path d="M0 0 C1 2 1 2 0.21484375 4.45166016 C-0.41744141 5.97992432 -0.41744141 5.97992432 -1.0625 7.5390625 C-1.52599854 8.66892578 -1.98949707 9.79878906 -2.46704102 10.96289062 C-2.97291748 12.17138672 -3.47879395 13.37988281 -4 14.625 C-4.51592785 15.86898134 -5.03147031 17.11312258 -5.54663086 18.35742188 C-7.02061069 21.90936143 -8.51023825 25.45465101 -10 29 C-10.52037842 30.25441895 -10.52037842 30.25441895 -11.05126953 31.53417969 C-26.21323515 68.07925754 -49.18800593 103.50271307 -76.40234375 132.2265625 C-78.43156996 134.39310477 -80.38271812 136.58560453 -82.3203125 138.83203125 C-86.0234881 143.08514372 -89.93950587 147.08763795 -93.9375 151.0625 C-94.60201172 151.73087891 -95.26652344 152.39925781 -95.95117188 153.08789062 C-100.46898454 157.59693935 -105.15308339 161.84867336 -110 166 C-111.00912009 166.87759784 -112.01823512 167.75520149 -113.02734375 168.6328125 C-169.05421194 216.61286875 -238.25883857 250.10164808 -311.1875 262.0625 C-312.165979 262.22500244 -313.14445801 262.38750488 -314.15258789 262.55493164 C-317.4304168 263.0769533 -320.71189743 263.54708275 -324 264 C-325.28914307 264.18312744 -326.57828613 264.36625488 -327.90649414 264.55493164 C-342.1453874 266.40382087 -356.44423181 266.34083268 -370.77612305 266.31567383 C-373.62133663 266.31105813 -376.46612111 266.31792035 -379.3112793 266.33618164 C-404.00403621 266.49313133 -428.08273096 264.73391502 -452.28466797 259.57568359 C-454.1382674 259.18269785 -455.99421756 258.80067989 -457.85205078 258.42822266 C-504.11909869 249.12299032 -549.26162695 230.35609372 -589 205 C-589.67272949 204.57267578 -590.34545898 204.14535156 -591.03857422 203.70507812 C-605.19173824 194.65326656 -618.50135093 184.52634274 -631.18847656 173.52441406 C-632.54550108 172.38246513 -633.92671851 171.26916052 -635.31933594 170.17089844 C-642.96488911 164.10679572 -649.8545063 157.45239818 -656.72558594 150.53515625 C-658.62215939 148.62785668 -660.52920305 146.73149941 -662.4375 144.8359375 C-669.42216732 137.85893117 -675.86778357 130.74361338 -682 123 C-683.55038487 121.1728721 -685.12354921 119.368294 -686.70141602 117.56494141 C-691.89852613 111.62360441 -696.60734949 105.56556078 -701 99 C-701.84794154 97.78353658 -702.6984087 96.5688315 -703.55078125 95.35546875 C-711.91110317 83.41885204 -719.32241449 71.08666841 -726.4375 58.375 C-726.86297119 57.61654785 -727.28844238 56.8580957 -727.72680664 56.07666016 C-728.12504639 55.35784668 -728.52328613 54.6390332 -728.93359375 53.8984375 C-729.4603772 52.94976807 -729.4603772 52.94976807 -729.99780273 51.98193359 C-731.14885862 49.70561893 -732.08194595 47.37865308 -733 45 C-726.4727176 44.66874477 -719.94761505 44.4421076 -713.41381836 44.28588867 C-711.19489594 44.22074511 -708.97652676 44.13219395 -706.75952148 44.01928711 C-688.87816915 43.13184519 -688.87816915 43.13184519 -684.18054199 46.18096924 C-680.78578824 49.58320042 -678.97974348 53.67601153 -677 58 C-675.93607174 59.54464003 -674.82874978 61.06109364 -673.6640625 62.53125 C-673.16310059 63.18971924 -672.66213867 63.84818848 -672.14599609 64.52661133 C-671.39310303 65.50343872 -671.39310303 65.50343872 -670.625 66.5 C-670.07537598 67.21502686 -669.52575195 67.93005371 -668.95947266 68.66674805 C-661.6461583 78.11671392 -653.90518823 87.13429425 -645.77954102 95.89257812 C-643.38201173 98.47700108 -641.05420497 101.09216073 -638.8125 103.8125 C-636.16813008 106.94937435 -633.18184445 109.5404808 -630.05859375 112.19140625 C-627.99675493 114.00285098 -626.09623288 115.90381369 -624.1875 117.875 C-620.37276608 121.73409129 -616.30619597 125.15541617 -612.0703125 128.54296875 C-609.95839484 130.23304026 -607.87452125 131.93639901 -605.8046875 133.67578125 C-586.77318861 149.50587223 -565.39258581 162.34349791 -543.75 174.25 C-542.85071777 174.7459668 -541.95143555 175.24193359 -541.02490234 175.75292969 C-534.80714723 179.13573472 -528.47645941 182.14670201 -522 185 C-520.845 185.515625 -519.69 186.03125 -518.5 186.5625 C-515.60019412 187.7534917 -512.70297383 188.82811238 -509.75 189.875 C-506.09588958 191.18003944 -502.6159958 192.62241473 -499.125 194.3125 C-476.52453001 204.70935015 -450.47312883 210.98202363 -426 215 C-424.30525215 215.32561206 -422.61129535 215.65535708 -420.91796875 215.98828125 C-380.23043359 223.82959276 -337.87402465 222.81352287 -297 217 C-295.95005859 216.86110352 -294.90011719 216.72220703 -293.81835938 216.57910156 C-266.17469852 212.87632081 -232.9221967 205.61772126 -208.34375 192.16015625 C-205.49048081 190.747788 -202.58638762 189.80774742 -199.5625 188.8125 C-191.04135985 185.85825856 -183.29364124 181.65121242 -175.40380859 177.31738281 C-173.10646343 176.0583462 -170.79908504 174.82005352 -168.48828125 173.5859375 C-144.27004444 160.53754856 -118.5599105 144.5599105 -99 125 C-99.46559326 125.30067383 -99.93118652 125.60134766 -100.41088867 125.91113281 C-127.43024538 143.30396041 -155.14389821 158.07254786 -185 170 C-186.22074219 170.49113281 -187.44148437 170.98226562 -188.69921875 171.48828125 C-191.78540995 172.70141915 -194.88632108 173.85930856 -198 175 C-198.67256836 175.25313965 -199.34513672 175.5062793 -200.03808594 175.76708984 C-220.16800713 183.31690957 -240.92436424 188.46827955 -262.04370117 192.40283203 C-263.5032019 192.67716064 -263.5032019 192.67716064 -264.9921875 192.95703125 C-265.84151855 193.11147705 -266.69084961 193.26592285 -267.56591797 193.42504883 C-270.02593725 193.93136194 -270.02593725 193.93136194 -272.31323242 194.99829102 C-275.81764166 196.30484177 -279.30221462 196.68664595 -282.99609375 197.0703125 C-284.19708206 197.19965179 -284.19708206 197.19965179 -285.42233276 197.331604 C-288.09285949 197.61010356 -290.76457715 197.8705538 -293.4375 198.125 C-294.36339935 198.21404602 -295.28929871 198.30309204 -296.24325562 198.39483643 C-312.93171425 199.95034338 -329.55737054 200.38638583 -346.3125 200.375 C-347.43437714 200.37663147 -348.55625427 200.37826294 -349.71212769 200.37994385 C-389.25315533 200.37342233 -389.25315533 200.37342233 -396 197 C-397.70363822 196.77377919 -399.41328701 196.59111527 -401.125 196.4375 C-402.03507812 196.35371094 -402.94515625 196.26992188 -403.8828125 196.18359375 C-404.58148437 196.12300781 -405.28015625 196.06242188 -406 196 C-406 195.67 -406 195.34 -406 195 C-405.3287207 194.98018066 -404.65744141 194.96036133 -403.96582031 194.93994141 C-379.43480044 194.18916112 -355.06479172 192.86188105 -330.75585938 189.38671875 C-327.98022041 188.99722441 -325.20223451 188.63536157 -322.421875 188.28125 C-293.97638621 184.62965004 -266.15901136 178.26719685 -239 169 C-237.97358398 168.65098633 -236.94716797 168.30197266 -235.88964844 167.94238281 C-182.71929783 149.72532912 -132.94418789 124.28144554 -89 89 C-88.34435059 88.47438477 -87.68870117 87.94876953 -87.01318359 87.40722656 C-77.94874638 80.1098863 -69.19181302 72.59097668 -60.73022461 64.6027832 C-58.59953052 62.6290275 -56.42742765 60.70431654 -54.2578125 58.7734375 C-48.93654385 53.9955115 -43.8568264 49.00509001 -38.8125 43.9375 C-37.96236328 43.09123047 -37.11222656 42.24496094 -36.23632812 41.37304688 C-31.28145975 36.41052619 -26.55185966 31.33269086 -22 26 C-20.93093167 24.77365387 -19.86063277 23.54837932 -18.7890625 22.32421875 C-12.39582636 14.98346867 -6.10298282 7.58536107 0 0 Z " fill="#051833" transform="translate(1002,759)"/>
<path d="M0 0 C1.69745361 0.00081573 1.69745361 0.00081573 3.42919922 0.00164795 C33.06472916 0.06674779 61.01676259 3.44822569 89.875 10.375 C91.33164955 10.70740626 92.78863138 11.03836341 94.24609375 11.3671875 C127.52471498 19.1933773 158.51346421 31.93918481 188.875 47.375 C189.87611816 47.88321289 190.87723633 48.39142578 191.90869141 48.91503906 C216.44850218 61.52782948 239.24556286 77.79462551 260.06542969 95.85253906 C261.41556117 96.98845649 262.79024344 98.0953125 264.17675781 99.18652344 C271.98936639 105.37475687 279.00966476 112.20349754 286.02783203 119.26708984 C287.9968315 121.24681424 289.97630727 123.21560754 291.95703125 125.18359375 C299.05810057 132.27687443 305.67589466 139.4719521 311.875 147.375 C312.94680979 148.66953162 314.02319474 149.96029777 315.10546875 151.24609375 C362.875 208.62503112 362.875 208.62503112 362.875 226.375 C354.33027748 226.77080948 345.78944004 227.07182445 337.2377882 227.25580692 C333.26531783 227.34417162 329.29915751 227.46367109 325.33032227 227.6574707 C299.70830589 228.87664404 299.70830589 228.87664404 293.38381958 224.74923706 C289.61040418 220.86182261 287.48507469 216.49844993 285.67282104 211.44076538 C284.51431038 208.44108113 282.77533654 205.93557208 280.9375 203.3125 C280.30585937 202.37148438 279.67421875 201.43046875 279.0234375 200.4609375 C271.24052536 189.28184552 262.87884375 178.59370061 253.875 168.375 C253.05 167.43785156 252.225 166.50070312 251.375 165.53515625 C240.52223992 153.47469574 229.23259381 141.35952396 216.421875 131.36328125 C213.62240504 129.17780547 210.94511628 126.87520114 208.25 124.5625 C157.45255851 82.26398694 93.33538948 57.46327911 28.28344727 48.83349609 C25.95017783 48.51963032 23.619904 48.18288212 21.29272461 47.82666016 C10.57132574 46.28494945 -0.00912074 46.06806405 -10.83178711 46.11425781 C-13.79106429 46.12492275 -16.74972614 46.11432956 -19.70898438 46.1015625 C-78.74860267 46.05433105 -136.95680535 62.18329769 -189.125 89.375 C-190.37498676 90.01565083 -191.62498682 90.65627573 -192.875 91.296875 C-216.85388775 103.70749372 -239.67219827 119.46724276 -259.4296875 137.890625 C-260.91276174 139.25763256 -262.40754863 140.61345122 -263.94897461 141.91430664 C-267.59416796 144.99842828 -270.8689747 148.12947797 -273.95703125 151.77734375 C-285.0168303 164.57331423 -285.0168303 164.57331423 -292.453125 165.4765625 C-297.0958731 165.61410954 -301.55043266 165.14328628 -306.125 164.375 C-306.27053599 160.47956123 -306.35915059 156.58482349 -306.4375 152.6875 C-306.5003418 151.03331055 -306.5003418 151.03331055 -306.56445312 149.34570312 C-306.68834045 141.1443621 -306.68834045 141.1443621 -304.07421875 137.57421875 C-303.10097656 136.84847656 -302.12773437 136.12273437 -301.125 135.375 C-299.91081279 134.19357793 -298.71414163 132.99400557 -297.53125 131.78125 C-294.92708333 129.17708333 -292.32291667 126.57291667 -289.71875 123.96875 C-288.7894165 123.0391748 -288.7894165 123.0391748 -287.84130859 122.09082031 C-286.3979874 120.64790974 -284.95308391 119.20658216 -283.5078125 117.765625 C-281.7944284 116.04662324 -280.09264856 114.31602632 -278.3984375 112.578125 C-272.8400667 106.8954914 -267.18714833 101.58825531 -260.94921875 96.640625 C-258.4434258 94.63044531 -256.01308757 92.55411297 -253.59204102 90.44335938 C-245.53628637 83.45618743 -236.92131142 77.38746006 -228.125 71.375 C-227.49335938 70.93800781 -226.86171875 70.50101562 -226.2109375 70.05078125 C-175.81389304 35.20176115 -117.2216323 12.69685081 -56.6875 3.75 C-55.56396118 3.58310669 -55.56396118 3.58310669 -54.41772461 3.4128418 C-51.65695999 3.0290121 -48.89385734 2.69597319 -46.125 2.375 C-45.42850342 2.29308411 -44.73200684 2.21116821 -44.0144043 2.12677002 C-29.33436041 0.44189265 -14.7692631 -0.02690558 0 0 Z " fill="#0254CF" transform="translate(627.125,190.625)"/>
<path d="M0 0 C28.05 0 56.1 0 85 0 C83.87587822 8.99297424 83.87587822 8.99297424 83.125 12.1875 C82.86106445 13.32832031 82.86106445 13.32832031 82.59179688 14.4921875 C82.39650391 15.31976563 82.20121094 16.14734375 82 17 C81.55134112 18.93732826 81.10349642 20.87484517 80.65625 22.8125 C80.39972656 23.92109375 80.14320313 25.0296875 79.87890625 26.171875 C78.25953977 33.22511565 76.68033788 40.2874251 75.09545898 47.34848022 C74.10707728 51.74964587 73.11579151 56.15015761 72.125 60.55078125 C70.95334482 65.75541102 69.78440852 70.96059407 68.625 76.16796875 C66.82370648 84.22466339 64.94643746 92.25929686 62.98046875 100.27734375 C62.70492409 101.40115448 62.70492409 101.40115448 62.42381287 102.54766846 C61.65006442 105.70208082 60.87622584 108.85647085 60.10165405 112.01068115 C56.99653301 124.67482446 54.0983806 137.37483201 51.30892944 150.11187744 C49.132995 160.03868947 46.82137965 169.90938223 44.29272461 179.75341797 C41.58278227 190.42284285 39.24607458 201.17567462 36.890625 211.92773438 C34.8562546 221.20798236 32.7335221 230.46261177 30.54174805 239.70687866 C29.55110885 243.90007492 28.57470198 248.09658798 27.59765625 252.29296875 C27.28963326 253.61579613 27.28963326 253.61579613 26.97538757 254.96534729 C26.33747018 257.70599789 25.69994022 260.44673838 25.0625 263.1875 C24.84212067 264.13465881 24.62174133 265.08181763 24.39468384 266.05767822 C21.77402967 277.32322203 19.16926203 288.59176206 16.62353516 299.87451172 C14.9124315 307.4373754 13.11741454 314.97952234 11.30859375 322.51953125 C9.52040094 330.0085895 7.76350808 337.50509065 6 345 C-21.06 345 -48.12 345 -76 345 C-80.05265317 336.08416303 -83.62893284 327.26585353 -86.875 318.0625 C-87.13701202 317.32012085 -87.39902405 316.5777417 -87.66897583 315.81286621 C-111.55850022 247.70149496 -120.28518423 163.28768802 -88.13330078 96.31445312 C-87.42914077 94.87289124 -86.71574662 93.43584427 -86 92 C-84.80696363 95.5791091 -85.28744936 96.87713089 -86.2578125 100.4765625 C-86.55163818 101.60328369 -86.84546387 102.73000488 -87.14819336 103.89086914 C-87.47053955 105.12313232 -87.79288574 106.35539551 -88.125 107.625 C-98.35263566 148.69694702 -102.36288064 193.3369748 -93 235 C-92.56919767 237.14404704 -92.14090638 239.28859981 -91.71484375 241.43359375 C-88.03657612 259.21581709 -82.44041006 276.39038036 -74.93603516 292.93334961 C-73.57626625 295.93555196 -72.29044462 298.96745514 -71 302 C-69.89070079 297.48041367 -68.78693899 292.95949408 -67.6875 288.4375 C-67.52626648 287.77472046 -67.36503296 287.11194092 -67.19891357 286.42907715 C-65.09817957 277.7747172 -63.10308379 269.12327043 -61.5078125 260.359375 C-61 258 -61 258 -60 257 C-59.64635087 255.36251537 -59.3427896 253.71412385 -59.0625 252.0625 C-58.88589844 251.05574219 -58.70929688 250.04898438 -58.52734375 249.01171875 C-58.35332031 248.01785156 -58.17929687 247.02398438 -58 246 C-56.8229753 239.60589284 -55.40342027 233.27053852 -53.9375 226.9375 C-53.76299316 226.17421387 -53.58848633 225.41092773 -53.40869141 224.62451172 C-52.11754975 219.11754975 -52.11754975 219.11754975 -51 218 C-50.50174172 215.4186619 -50.0496585 212.84358928 -49.625 210.25 C-46.0154935 189.0154935 -46.0154935 189.0154935 -44 187 C-43.52405495 184.50204639 -43.09382765 182.0094444 -42.6875 179.5 C-41.60951223 173.11699742 -40.3552021 166.80218526 -38.875 160.5 C-38.70444092 159.76458984 -38.53388184 159.02917969 -38.3581543 158.27148438 C-37.12793595 153.12793595 -37.12793595 153.12793595 -36 152 C-35.54650223 149.58543079 -35.13839242 147.17521661 -34.75 144.75 C-32.61827576 132.11454086 -29.88393891 119.49291592 -25.875 107.3125 C-24.09431241 101.77964927 -23.15509063 96.2377986 -22.28466797 90.51074219 C-21.19313017 83.61061259 -19.64414949 76.85027313 -18 70.0625 C-17.75072754 69.03286133 -17.50145508 68.00322266 -17.24462891 66.94238281 C-15.60470443 60.26439527 -13.84093575 53.62524707 -12 47 C-13.65 47 -15.3 47 -17 47 C-17 42.05 -17 37.1 -17 32 C-11.39 32 -5.78 32 0 32 C0 21.44 0 10.88 0 0 Z " fill="#041732" transform="translate(335,438)"/>
<path d="M0 0 C13.53 0 27.06 0 41 0 C41 13.86 41 27.72 41 42 C27.47 42 13.94 42 0 42 C0 28.14 0 14.28 0 0 Z " fill="#0257D5" transform="translate(269,418)"/>
<path d="M0 0 C11.55 0 23.1 0 35 0 C35 11.88 35 23.76 35 36 C23.45 36 11.9 36 0 36 C0 24.12 0 12.24 0 0 Z " fill="#0E1F39" transform="translate(312,370)"/>
<path d="M0 0 C9.9 0 19.8 0 30 0 C30 10.23 30 20.46 30 31 C20.1 31 10.2 31 0 31 C0 20.77 0 10.54 0 0 Z " fill="#0B5DD5" transform="translate(223,381)"/>
<path d="M0 0 C9.24 0 18.48 0 28 0 C28.020625 4.599375 28.04125 9.19875 28.0625 13.9375 C28.071604 15.39019287 28.08070801 16.84288574 28.09008789 18.33959961 C28.09258545 19.47405518 28.09508301 20.60851074 28.09765625 21.77734375 C28.10551147 23.52905884 28.10551147 23.52905884 28.11352539 25.31616211 C28 28 28 28 27 29 C25.00035018 29.08758003 22.9976389 29.10696576 20.99609375 29.09765625 C19.90224365 29.09515869 18.80839355 29.09266113 17.68139648 29.09008789 C16.28091064 29.08098389 14.8804248 29.07187988 13.4375 29.0625 C6.7859375 29.0315625 6.7859375 29.0315625 0 29 C0 19.43 0 9.86 0 0 Z " fill="#102038" transform="translate(275,481)"/>
<path d="M0 0 C8.58 0 17.16 0 26 0 C26 8.91 26 17.82 26 27 C17.42 27 8.84 27 0 27 C0 18.09 0 9.18 0 0 Z " fill="#0B1B34" transform="translate(228,453)"/>
<path d="M0 0 C8.25 0 16.5 0 25 0 C25 8.58 25 17.16 25 26 C16.75 26 8.5 26 0 26 C0 17.42 0 8.84 0 0 Z " fill="#10233E" transform="translate(281,340)"/>
<path d="M0 0 C0.97582031 0.00902344 1.95164062 0.01804687 2.95703125 0.02734375 C4.06111328 0.04474609 4.06111328 0.04474609 5.1875 0.0625 C4.5275 2.0425 3.8675 4.0225 3.1875 6.0625 C6.8175 6.0625 10.4475 6.0625 14.1875 6.0625 C14.1875 6.3925 14.1875 6.7225 14.1875 7.0625 C16.8275 7.3925 19.4675 7.7225 22.1875 8.0625 C22.1875 8.3925 22.1875 8.7225 22.1875 9.0625 C14.89993384 9.11406545 7.61241623 9.14858764 0.32470703 9.17236328 C-2.14406084 9.18229603 -4.61281737 9.19584675 -7.08154297 9.21337891 C-48.93208484 9.50270758 -48.93208484 9.50270758 -55.8125 6.0625 C-57.51613822 5.83627919 -59.22578701 5.65361527 -60.9375 5.5 C-61.84757813 5.41621094 -62.75765625 5.33242188 -63.6953125 5.24609375 C-64.39398437 5.18550781 -65.09265625 5.12492188 -65.8125 5.0625 C-65.8125 4.7325 -65.8125 4.4025 -65.8125 4.0625 C-65.1412207 4.04268066 -64.46994141 4.02286133 -63.77832031 4.00244141 C-50.31388174 3.59035764 -36.87538567 3.01678463 -23.4375 2.0625 C-21.65714355 1.9380249 -21.65714355 1.9380249 -19.84082031 1.81103516 C-13.18833002 1.31958123 -6.65520341 -0.08018317 0 0 Z " fill="#12243D" transform="translate(661.8125,949.9375)"/>
<path d="M0 0 C5.61 0 11.22 0 17 0 C17.020625 2.619375 17.04125 5.23875 17.0625 7.9375 C17.071604 8.7637085 17.08070801 9.58991699 17.09008789 10.44116211 C17.09723945 12.29433759 17.0502852 14.14749308 17 16 C16 17 16 17 12.40234375 17.09765625 C10.91402745 17.09191272 9.42573704 17.07889891 7.9375 17.0625 C5.318125 17.041875 2.69875 17.02125 0 17 C0 11.39 0 5.78 0 0 Z " fill="#1561D6" transform="translate(277,384)"/>
<path d="M0 0 C1.2611699 3.7835097 0.56578336 5.60777691 -0.3984375 9.4609375 C-0.71296875 10.73710938 -1.0275 12.01328125 -1.3515625 13.328125 C-1.69241868 14.67715655 -2.03356734 16.02611424 -2.375 17.375 C-2.70910532 18.71595372 -3.04244728 20.05709789 -3.375 21.3984375 C-3.98855431 23.87260773 -4.60585159 26.3458548 -5.22802734 28.81787109 C-5.88770182 31.53709852 -6.47668905 34.25181095 -7 37 C-9 36 -9 36 -11 33 C-11 34.32 -11 35.64 -11 37 C-11.66 37 -12.32 37 -13 37 C-13.33 37.66 -13.66 38.32 -14 39 C-13.48882297 32.48249285 -11.7681707 27.19572661 -9.25 21.1875 C-8.89164063 20.31254883 -8.53328125 19.43759766 -8.1640625 18.53613281 C-5.58884635 12.29030731 -2.90930915 6.09835957 0 0 Z " fill="#1E2D47" transform="translate(249,530)"/>
<path d="M0 0 C0.66 0.33 1.32 0.66 2 1 C-5.16778468 7.22039053 -12.46492719 13.22788074 -20 19 C-20.71728271 19.55131592 -21.43456543 20.10263184 -22.17358398 20.6706543 C-25.67709224 23.33546263 -29.15477682 25.83706196 -33 28 C-33.12375 27.360625 -33.2475 26.72125 -33.375 26.0625 C-33.58125 25.381875 -33.7875 24.70125 -34 24 C-34.66 23.67 -35.32 23.34 -36 23 C-35.47269287 22.68885254 -34.94538574 22.37770508 -34.40209961 22.05712891 C-16.2513149 12.34665144 -16.2513149 12.34665144 0 0 Z " fill="#E9EBED" transform="translate(905,881)"/>
<path d="M0 0 C2.64 0 5.28 0 8 0 C7.67 0.99 7.34 1.98 7 3 C20.86 3.33 34.72 3.66 49 4 C49 4.33 49 4.66 49 5 C41.71243384 5.05156545 34.42491623 5.08608764 27.13720703 5.10986328 C24.66843916 5.11979603 22.19968263 5.13334675 19.73095703 5.15087891 C4.02435192 5.25946463 -11.38767153 4.77244789 -27 3 C-27 2.67 -27 2.34 -27 2 C-8.02901051 -0.05488474 -8.02901051 -0.05488474 -1 2 C-0.67 1.34 -0.34 0.68 0 0 Z " fill="#364154" transform="translate(635,954)"/>
<path d="M0 0 C0 0.33 0 0.66 0 1 C-2.64 1 -5.28 1 -8 1 C-8.33 1.99 -8.66 2.98 -9 4 C-11.31243792 4.02685412 -13.6249627 4.04632841 -15.9375 4.0625 C-17.22527344 4.07410156 -18.51304687 4.08570313 -19.83984375 4.09765625 C-23 4 -23 4 -24 3 C-25.9785906 2.95225121 -27.95867817 2.96305584 -29.9375 3 C-35.69858549 3.05087051 -41.28772712 2.72209319 -47 2 C-47 1.67 -47 1.34 -47 1 C-31.3253455 0.33419904 -15.68950475 -0.16100974 0 0 Z " fill="#080E23" transform="translate(643,953)"/>
<path d="M0 0 C0.33 0.99 0.66 1.98 1 3 C-2.16936171 6.49561953 -5.35345653 9.97656062 -8.55908203 13.43896484 C-9.83716869 14.82359481 -11.10490548 16.21776238 -12.37109375 17.61328125 C-13.05300781 18.33902344 -13.73492187 19.06476563 -14.4375 19.8125 C-15.33275391 20.78123047 -15.33275391 20.78123047 -16.24609375 21.76953125 C-17.11427734 22.37861328 -17.11427734 22.37861328 -18 23 C-20.10961914 22.5769043 -20.10961914 22.5769043 -22 22 C-14.66666667 14.66666667 -7.33333333 7.33333333 0 0 Z " fill="#0D5AD1" transform="translate(346,306)"/>
<path d="M0 0 C0.33 0.66 0.66 1.32 1 2 C0.09239638 4.59732225 -0.87067892 7.09450975 -1.9375 9.625 C-2.22818359 10.33140625 -2.51886719 11.0378125 -2.81835938 11.765625 C-3.53867488 13.51327573 -4.26845694 15.25701915 -5 17 C-5.33 16.01 -5.66 15.02 -6 14 C-6.763125 14.78375 -7.52625 15.5675 -8.3125 16.375 C-11 19 -11 19 -14 21 C-14.99 20.67 -15.98 20.34 -17 20 C-16.443125 19.39414062 -15.88625 18.78828125 -15.3125 18.1640625 C-9.96200371 12.28936219 -4.89008959 6.26251255 0 0 Z " fill="#19233A" transform="translate(1002,759)"/>
<path d="M0 0 C2 4 2 4 2 20 C-11.2 20 -24.4 20 -38 20 C-38 19.67 -38 19.34 -38 19 C-36.42532959 18.97812622 -36.42532959 18.97812622 -34.81884766 18.95581055 C-30.93096526 18.89792007 -27.04366774 18.82068794 -23.15625 18.73754883 C-21.47242715 18.70425565 -19.78849152 18.67623744 -18.10449219 18.65356445 C-15.68635914 18.62009795 -13.26926376 18.56778964 -10.8515625 18.51171875 C-10.0963028 18.50532883 -9.34104309 18.4989389 -8.56289673 18.49235535 C-6.21354099 18.46019682 -6.21354099 18.46019682 -3 18 C-0.59880941 14.39821412 -0.56228678 11.49133631 -0.375 7.3125 C-0.33632813 6.61060547 -0.29765625 5.90871094 -0.2578125 5.18554688 C-0.1637666 3.45745345 -0.0808032 1.72876325 0 0 Z " fill="#0150CD" transform="translate(308,440)"/>
<path d="M0 0 C1.12670431 3.38011294 0.84431821 4.50457306 0.00390625 7.88671875 C-0.22490234 8.82451172 -0.45371094 9.76230469 -0.68945312 10.72851562 C-0.93630859 11.70498047 -1.18316406 12.68144531 -1.4375 13.6875 C-1.68048828 14.67556641 -1.92347656 15.66363281 -2.17382812 16.68164062 C-2.77531863 19.12298445 -3.38430006 21.56220809 -4 24 C-4.33 23.01 -4.66 22.02 -5 21 C-6.32 21.33 -7.64 21.66 -9 22 C-6.66062389 14.33204498 -3.45231194 7.22862726 0 0 Z " fill="#28334B" transform="translate(249,530)"/>
<path d="M0 0 C0.66 0.33 1.32 0.66 2 1 C0.88273561 4.35179318 0.04550033 5.01707405 -2.625 7.1875 C-7.2399035 11.09561647 -12.25990832 15.51981664 -15 21 C-15.99 20.67 -16.98 20.34 -18 20 C-12.80029729 12.48931831 -6.52800875 6.33787257 0 0 Z " fill="#0F1E39" transform="translate(760,463)"/>
<path d="M0 0 C8.58 0 17.16 0 26 0 C22.19409895 2.85442578 19.32409846 4.25372947 15 6 C14.67 5.01 14.34 4.02 14 3 C11.29816945 1.64908472 8.88191794 1.66141942 5.875 1.4375 C4.23144531 1.31181641 4.23144531 1.31181641 2.5546875 1.18359375 C1.71164062 1.12300781 0.86859375 1.06242187 0 1 C0 0.67 0 0.34 0 0 Z " fill="#095EE3" transform="translate(746,438)"/>
<path d="M0 0 C11.22 0 22.44 0 34 0 C34 0.33 34 0.66 34 1 C23.77 1 13.54 1 3 1 C3.99 2.98 4.98 4.96 6 7 C5.6875 9.375 5.6875 9.375 5 11 C4.16151196 9.54462432 3.32936066 8.08559627 2.5 6.625 C1.80390625 5.40683594 1.80390625 5.40683594 1.09375 4.1640625 C0 2 0 2 0 0 Z " fill="#10203A" transform="translate(269,804)"/>
<path d="M0 0 C0.33 0.66 0.66 1.32 1 2 C-0.18126689 5.15639593 -1.75808903 6.87482564 -4.375 8.9375 C-7.34128306 11.3712145 -9.71620088 13.8940332 -12 17 C-12.66 16.67 -13.32 16.34 -14 16 C-12.34136495 11.67495164 -9.128959 8.90581175 -5.875 5.75 C-5.31167969 5.19570313 -4.74835937 4.64140625 -4.16796875 4.0703125 C-2.78313972 2.70895515 -1.39216796 1.35385141 0 0 Z " fill="#14223D" transform="translate(686,707)"/>
<path d="M0 0 C1.98 0.66 3.96 1.32 6 2 C6 2.66 6 3.32 6 4 C10.1196377 5.29243536 13.66831683 6.26252625 18 6 C17 9 17 9 15.359375 9.92578125 C11.70897155 10.04061182 9.20599588 8.10727315 6.25 6.1875 C5.64800781 5.81818359 5.04601562 5.44886719 4.42578125 5.06835938 C2.90797934 4.10983822 1.44806594 3.06093849 0 2 C0 1.34 0 0.68 0 0 Z " fill="#1259C9" transform="translate(451,903)"/>
<path d="M0 0 C2 3 2 3 1.6875 5.4375 C1.460625 6.283125 1.23375 7.12875 1 8 C0.855625 8.70125 0.71125 9.4025 0.5625 10.125 C-0.43914964 13.46383215 -2.54254899 15.65425131 -5 18 C-4.42934122 11.58008874 -2.32655091 5.98410537 0 0 Z M2 1 C2.99 1.495 2.99 1.495 4 2 C3.01 2.495 3.01 2.495 2 3 C2 2.34 2 1.68 2 1 Z " fill="#303E55" transform="translate(722,517)"/>
<path d="M0 0 C4.95 0 9.9 0 15 0 C15 0.33 15 0.66 15 1 C10.71 1 6.42 1 2 1 C1.67 2.65 1.34 4.3 1 6 C0.34 6 -0.32 6 -1 6 C-1.33 8.97 -1.66 11.94 -2 15 C-2.66 15 -3.32 15 -4 15 C-3.43179252 9.54520815 -2.05362055 5.08940744 0 0 Z " fill="#216EE6" transform="translate(446,438)"/>
<path d="M0 0 C0.33 0 0.66 0 1 0 C1.31768836 3.1330645 1.29360831 4.57970791 -0.5390625 7.203125 C-7.46564885 14 -7.46564885 14 -13 14 C-12.319375 13.505 -11.63875 13.01 -10.9375 12.5 C-6.82592201 9.00078469 -2.44115411 4.88230822 0 0 Z " fill="#1A2641" transform="translate(925,687)"/>
<path d="M0 0 C1.05078125 1.83203125 1.05078125 1.83203125 2 4 C1.38991336 6.01797888 0.71143088 8.01548229 0 10 C-0.33246725 12.3470605 -0.55707373 14.68488475 -0.75390625 17.046875 C-1 19 -1 19 -2 21 C-2.66 21 -3.32 21 -4 21 C-3.29843593 13.84404654 -1.69214979 6.98144819 0 0 Z " fill="#3E79D6" transform="translate(489,708)"/>
<path d="M0 0 C0.33 0 0.66 0 1 0 C1 2.64 1 5.28 1 8 C0.34 8 -0.32 8 -1 8 C-0.81566406 8.57234375 -0.63132812 9.1446875 -0.44140625 9.734375 C0.28163726 13.44557179 -0.97932313 16.39761105 -2 20 C-2.66 19.67 -3.32 19.34 -4 19 C-3.37968409 12.42465139 -1.85102717 6.33307408 0 0 Z " fill="#3B78DA" transform="translate(503,650)"/>
<path d="M0 0 C0.66 0.33 1.32 0.66 2 1 C-0.05012673 2.84901621 -2.11315074 4.67851101 -4.1875 6.5 C-5.0547168 7.28697266 -5.0547168 7.28697266 -5.93945312 8.08984375 C-10.34516693 11.92306367 -10.34516693 11.92306367 -13.92578125 12.34375 C-14.61027344 12.2303125 -15.29476562 12.116875 -16 12 C-13.04983186 8.82559105 -9.99784714 6.58078442 -6.3125 4.3125 C-2.97781689 2.39067278 -2.97781689 2.39067278 0 0 Z " fill="#C7CAD3" transform="translate(905,881)"/>
<path d="M0 0 C0.66 0.66 1.32 1.32 2 2 C0.42617053 3.65492374 -1.15942902 5.29866024 -2.75 6.9375 C-3.63171875 7.85402344 -4.5134375 8.77054688 -5.421875 9.71484375 C-7.80176695 11.82429343 -8.9099375 12.66067071 -12 13 C-8.19524578 8.43969176 -4.25030379 4.14910608 0 0 Z " fill="#1D2841" transform="translate(652,740)"/>
<path d="M0 0 C1.64518886 2.5161712 2.02003059 3.77465584 1.75 6.8125 C0.94087129 10.25129702 0.01505162 13.6164946 -1 17 C-1.66 17 -2.32 17 -3 17 C-2.48517081 11.147205 -1.54642808 5.6702363 0 0 Z " fill="#2B6BD2" transform="translate(473,776)"/>
<path d="M0 0 C1.37995672 4.13987017 1.05261943 7.78166691 0 12 C-2.0625 14.0625 -2.0625 14.0625 -4 15 C-3.85769192 13.58297487 -3.71099254 12.1663904 -3.5625 10.75 C-3.48128906 9.96109375 -3.40007812 9.1721875 -3.31640625 8.359375 C-3.02365007 6.17635361 -2.57935581 4.1226818 -2 2 C-1.34 2 -0.68 2 0 2 C0 1.34 0 0.68 0 0 Z " fill="#236AD3" transform="translate(463,825)"/>
<path d="M0 0 C0.66 0.66 1.32 1.32 2 2 C1.01 4.31 0.02 6.62 -1 9 C-1.66 9 -2.32 9 -3 9 C-3 9.66 -3 10.32 -3 11 C-5.97 11 -8.94 11 -12 11 C-12 10.67 -12 10.34 -12 10 C-10.948125 10.020625 -9.89625 10.04125 -8.8125 10.0625 C-4.9819434 9.40812512 -4.9819434 9.40812512 -3.421875 6.9296875 C-2.18021033 4.65330227 -1.04089656 2.37439538 0 0 Z " fill="#0C61DE" transform="translate(709,502)"/>
<path d="M0 0 C2 2 2 2 2 6 C1.34 6 0.68 6 0 6 C0.185625 6.515625 0.37125 7.03125 0.5625 7.5625 C1.15419517 10.85908739 0.567267 13.72245735 0 17 C-0.99 17 -1.98 17 -3 17 C-2.85691406 16.30519531 -2.71382813 15.61039063 -2.56640625 14.89453125 C-1.96733421 11.83306655 -1.44485302 8.76544167 -0.9375 5.6875 C-0.76089844 4.61886719 -0.58429688 3.55023437 -0.40234375 2.44921875 C-0.26957031 1.64097656 -0.13679688 0.83273437 0 0 Z " fill="#3779DF" transform="translate(512,610)"/>
<path d="M0 0 C0.99 0.33 1.98 0.66 3 1 C3.33 2.65 3.66 4.3 4 6 C4.99 6.33 5.98 6.66 7 7 C7.33 9.31 7.66 11.62 8 14 C0 4.57142857 0 4.57142857 0 0 Z " fill="#18243E" transform="translate(719,592)"/>
<path d="M0 0 C0.66 0.33 1.32 0.66 2 1 C0.3125 3.0625 0.3125 3.0625 -2 5 C-4.75 4.75 -4.75 4.75 -7 4 C-7 4.66 -7 5.32 -7 6 C-7.99 6.33 -8.98 6.66 -10 7 C-10.66 6.34 -11.32 5.68 -12 5 C-10.04578965 4.13644222 -8.08648653 3.28440066 -6.125 2.4375 C-5.03445313 1.96183594 -3.94390625 1.48617187 -2.8203125 0.99609375 C-1.88960937 0.66738281 -0.95890625 0.33867188 0 0 Z " fill="#444F66" transform="translate(799,949)"/>
<path d="M0 0 C1 2 1 2 0.22265625 4.3828125 C-0.16019531 5.28773438 -0.54304687 6.19265625 -0.9375 7.125 C-1.31777344 8.03507813 -1.69804688 8.94515625 -2.08984375 9.8828125 C-2.54037109 10.93082031 -2.54037109 10.93082031 -3 12 C-3.66 12 -4.32 12 -5 12 C-5 11.01 -5 10.02 -5 9 C-5.66 8.67 -6.32 8.34 -7 8 C-4.69 5.36 -2.38 2.72 0 0 Z " fill="#28324A" transform="translate(1002,759)"/>
<path d="M0 0 C4.95 0 9.9 0 15 0 C15 0.33 15 0.66 15 1 C11.37 1.33 7.74 1.66 4 2 C3.34 4.31 2.68 6.62 2 9 C1.67 9 1.34 9 1 9 C0.67 6.03 0.34 3.06 0 0 Z " fill="#111A31" transform="translate(335,438)"/>
<path d="M0 0 C0.66 0.33 1.32 0.66 2 1 C-0.31 3.64 -2.62 6.28 -5 9 C-6.32 8.67 -7.64 8.34 -9 8 C-8.43410156 7.50628906 -7.86820313 7.01257813 -7.28515625 6.50390625 C-6.55167969 5.86324219 -5.81820312 5.22257813 -5.0625 4.5625 C-4.33160156 3.92441406 -3.60070312 3.28632812 -2.84765625 2.62890625 C-1.87860647 1.77458541 -0.91348825 0.91348825 0 0 Z " fill="#E5E7EB" transform="translate(898,918)"/>
<path d="M0 0 C1.10844919 3.32534757 0.84454356 5.62182575 0 9 C-0.33 8.01 -0.66 7.02 -1 6 C-2.98 6.99 -2.98 6.99 -5 8 C-3.375 2.25 -3.375 2.25 0 0 Z " fill="#112442" transform="translate(997,767)"/>
<path d="M0 0 C1.3805087 3.76668598 0.59568159 6.44789173 -0.4375 10.25 C-0.72496094 11.32765625 -1.01242187 12.4053125 -1.30859375 13.515625 C-1.53675781 14.33546875 -1.76492188 15.1553125 -2 16 C-2.33 16 -2.66 16 -3 16 C-3.37952295 9.80112515 -2.8352113 5.5522888 0 0 Z " fill="#165ED2" transform="translate(480,752)"/>
<path d="M0 0 C0.99 0 1.98 0 3 0 C2.67 2.97 2.34 5.94 2 9 C-1 6 -1 6 -1.25 3.375 C-1 1 -1 1 0 0 Z " fill="#081225" transform="translate(241,551)"/>
<path d="M0 0 C4.25191465 -0.36444983 6.58517997 0.43888497 10 3 C10.33 3.99 10.66 4.98 11 6 C9.5410574 5.52269162 8.08286504 5.04308958 6.625 4.5625 C5.81289063 4.29566406 5.00078125 4.02882813 4.1640625 3.75390625 C2 3 2 3 0 2 C0 1.34 0 0.68 0 0 Z " fill="#2F6CD0" transform="translate(486,922)"/>
<path d="M0 0 C1.60157434 4.98267571 -0.04727022 8.31344854 -2 13 C-2.33 13 -2.66 13 -3 13 C-2.88490339 11.58249437 -2.75746342 10.16598831 -2.625 8.75 C-2.55539062 7.96109375 -2.48578125 7.1721875 -2.4140625 6.359375 C-1.98492887 3.914123 -1.21399362 2.15163097 0 0 Z " fill="#DBEAF9" transform="translate(582,675)"/>
<path d="M0 0 C0.99 0 1.98 0 3 0 C3.14285714 8.57142857 3.14285714 8.57142857 2 12 C1.01 12 0.02 12 -1 12 C-0.67 8.04 -0.34 4.08 0 0 Z " fill="#0F203E" transform="translate(930,668)"/>
<path d="M0 0 C1.47353497 4.63110991 0.44872344 8.46233176 -1 13 C-2.625 15.5625 -2.625 15.5625 -4 17 C-3.35729017 11.0870696 -1.80996216 5.65755469 0 0 Z " fill="#377FE6" transform="translate(439,459)"/>
<path d="M0 0 C0.66 0.99 1.32 1.98 2 3 C-0.64 5.31 -3.28 7.62 -6 10 C-6.66 9.67 -7.32 9.34 -8 9 C-5.36 6.03 -2.72 3.06 0 0 Z " fill="#1E2841" transform="translate(984,780)"/>
<path d="M0 0 C0.99 0.33 1.98 0.66 3 1 C1.85760183 2.33627775 0.71098945 3.66895388 -0.4375 5 C-1.07558594 5.7425 -1.71367188 6.485 -2.37109375 7.25 C-3.17740234 8.11625 -3.17740234 8.11625 -4 9 C-4.33 9 -4.66 9 -5 9 C-5.3125 6.75 -5.3125 6.75 -5 4 C-2.6875 1.625 -2.6875 1.625 0 0 Z " fill="#136AE1" transform="translate(735,461)"/>
<path d="M0 0 C0.66 0.33 1.32 0.66 2 1 C1.01 1.8971875 1.01 1.8971875 0 2.8125 C-2.3373846 4.87501834 -2.3373846 4.87501834 -2 8 C-3.98 7.34 -5.96 6.68 -8 6 C-5.38485683 3.87961365 -2.80362384 1.86908256 0 0 Z " fill="#D4D8DE" transform="translate(882,896)"/>
<path d="M0 0 C1.44977894 2.34112451 2.04314411 3.5796929 1.7578125 6.359375 C1.54898437 7.14828125 1.34015625 7.9371875 1.125 8.75 C0.92132813 9.54921875 0.71765625 10.3484375 0.5078125 11.171875 C0.34023438 11.77515625 0.17265625 12.3784375 0 13 C-0.66 13 -1.32 13 -2 13 C-1.85769192 11.58297487 -1.71099254 10.1663904 -1.5625 8.75 C-1.48128906 7.96109375 -1.40007812 7.1721875 -1.31640625 6.359375 C-1.02365007 4.17635361 -0.57935581 2.1226818 0 0 Z " fill="#296DD2" transform="translate(458,840)"/>
<path d="M0 0 C0.90550946 3.01150495 1.06723758 5.43770987 0.75 8.5625 C0.68296875 9.32691406 0.6159375 10.09132813 0.546875 10.87890625 C-0.09694852 13.37602176 -1.05228884 14.36120002 -3 16 C-2.40984815 10.49191603 -1.43336231 5.35121931 0 0 Z " fill="#535C71" transform="translate(303,570)"/>
<path d="M0 0 C0.66 0.33 1.32 0.66 2 1 C0.75 3 0.75 3 -1 5 C-2.32 5 -3.64 5 -5 5 C-5 5.66 -5 6.32 -5 7 C-6.32 6.67 -7.64 6.34 -9 6 C-6.03 4.02 -3.06 2.04 0 0 Z " fill="#29364F" transform="translate(859,917)"/>
<path d="M0 0 C1.875 0.125 1.875 0.125 4 1 C5.76708665 4.78661425 6.1914033 7.04865524 5 11 C4.16151196 9.54462432 3.32936066 8.08559627 2.5 6.625 C1.80390625 5.40683594 1.80390625 5.40683594 1.09375 4.1640625 C0 2 0 2 0 0 Z " fill="#28344C" transform="translate(269,804)"/>
<path d="M0 0 C1.44977894 2.34112451 2.04314411 3.5796929 1.7578125 6.359375 C1.54898437 7.14828125 1.34015625 7.9371875 1.125 8.75 C0.92132813 9.54921875 0.71765625 10.3484375 0.5078125 11.171875 C0.34023438 11.77515625 0.17265625 12.3784375 0 13 C-0.66 12.67 -1.32 12.34 -2 12 C-1 3.42857143 -1 3.42857143 0 0 Z " fill="#2D6ED3" transform="translate(469,793)"/>
<path d="M0 0 C0.66 0.33 1.32 0.66 2 1 C1.14285714 9.57142857 1.14285714 9.57142857 -1 13 C-2.20577428 8.05632546 -1.6290678 4.79137588 0 0 Z " fill="#1C6BDC" transform="translate(598,597)"/>
<path d="M0 0 C2.97 0 5.94 0 9 0 C8.34 0.66 7.68 1.32 7 2 C5.68 2 4.36 2 3 2 C2.34 3.65 1.68 5.3 1 7 C0.67 7 0.34 7 0 7 C0 4.69 0 2.38 0 0 Z " fill="#045BE4" transform="translate(224,382)"/>
<path d="M0 0 C2.37948772 0.17625835 3.70225849 0.69719773 5.37890625 2.40234375 C6.62115486 3.90649092 7.81376056 5.45129851 9 7 C8.01 7 7.02 7 6 7 C6 6.34 6 5.68 6 5 C5.38125 4.731875 4.7625 4.46375 4.125 4.1875 C2 3 2 3 0 0 Z " fill="#243049" transform="translate(365,867)"/>
<path d="M0 0 C0.33 0 0.66 0 1 0 C2.01911045 3.89114901 2.16782969 5.60596507 0.5625 9.375 C0.046875 10.24125 -0.46875 11.1075 -1 12 C-2.45606519 7.47907032 -1.27032841 4.48351204 0 0 Z " fill="#3A78D6" transform="translate(465,810)"/>
<path d="M0 0 C1.80411967 2.75924185 2.0127245 3.88972103 1.625 7.25 C1.41875 8.1575 1.2125 9.065 1 10 C0.34 10 -0.32 10 -1 10 C-1.33 10.99 -1.66 11.98 -2 13 C-1.85769192 11.58297487 -1.71099254 10.1663904 -1.5625 8.75 C-1.48128906 7.96109375 -1.40007812 7.1721875 -1.31640625 6.359375 C-1.02365007 4.17635361 -0.57935581 2.1226818 0 0 Z " fill="#3875D6" transform="translate(484,729)"/>
<path d="M0 0 C0.66 0 1.32 0 2 0 C1.25 7.625 1.25 7.625 -1 11 C-2.41687119 6.74938644 -1.19320039 4.28148375 0 0 Z " fill="#19253C" transform="translate(364,672)"/>
<path d="M0 0 C2.32590854 3.63423209 2.16265833 6.77088331 2 11 C1.01 11.495 1.01 11.495 0 12 C-0.76173392 7.6835078 -1.16063604 4.25566547 0 0 Z " fill="#1162DE" transform="translate(535,514)"/>
<path d="M0 0 C-4.455 2.97 -4.455 2.97 -9 6 C-9.33 5.01 -9.66 4.02 -10 3 C-3.375 -1.125 -3.375 -1.125 0 0 Z " fill="#126CE7" transform="translate(757,447)"/>
<path d="M0 0 C-0.66 0 -1.32 0 -2 0 C-2.33 0.99 -2.66 1.98 -3 3 C-3.66 3 -4.32 3 -5 3 C-5 2.34 -5 1.68 -5 1 C-7.31 1.33 -9.62 1.66 -12 2 C-7.89783794 -0.73477471 -4.73617773 -1.57872591 0 0 Z " fill="#D4D9DF" transform="translate(788,941)"/>
<path d="M0 0 C-1.6875 2.0625 -1.6875 2.0625 -4 4 C-6.75 3.75 -6.75 3.75 -9 3 C-6.38220849 -0.01046024 -3.86655673 -1.93327837 0 0 Z " fill="#E1E5E8" transform="translate(893,893)"/>
<path d="M0 0 C0.33 0 0.66 0 1 0 C2.19876651 5.44893869 1.91360308 8.22169095 -1 13 C-2.07310858 9.72814447 -1.89263102 7.57052408 -1.0625 4.25 C-0.86785156 3.45078125 -0.67320312 2.6515625 -0.47265625 1.828125 C-0.31667969 1.22484375 -0.16070312 0.6215625 0 0 Z " fill="#4D87DE" transform="translate(496,678)"/>
<path d="M0 0 C1.60080151 4.00200378 0.29279692 7.04556236 -1 11 C-1.99 9.68 -2.98 8.36 -4 7 C-3.34 5.68 -2.68 4.36 -2 3 C-1.34 3 -0.68 3 0 3 C0 2.01 0 1.02 0 0 Z " fill="#A5ACB6" transform="translate(311,535)"/>
<path d="M0 0 C0.66 0.66 1.32 1.32 2 2 C0.68 4.64 -0.64 7.28 -2 10 C-2.66 9.67 -3.32 9.34 -4 9 C-4 8.34 -4 7.68 -4 7 C-3.34 7 -2.68 7 -2 7 C-1.855625 6.030625 -1.71125 5.06125 -1.5625 4.0625 C-1 1 -1 1 0 0 Z " fill="#0C63E2" transform="translate(717,485)"/>
<path d="M0 0 C1.0326802 2.78823655 1.04509293 3.8677274 0.0625 6.75 C-0.288125 7.4925 -0.63875 8.235 -1 9 C-1.66 9 -2.32 9 -3 9 C-2.44271087 5.65626525 -1.64826111 2.96687001 0 0 Z " fill="#DDE0E5" transform="translate(1002,762)"/>
<path d="M0 0 C-0.33 2.31 -0.66 4.62 -1 7 C-1.99 7.33 -2.98 7.66 -4 8 C-3.74438677 5.6568787 -3.40729228 3.32156597 -3 1 C-1 0 -1 0 0 0 Z " fill="#E6E8EB" transform="translate(353,740)"/>
<path d="M0 0 C0.99 0.33 1.98 0.66 3 1 C3 2.65 3 4.3 3 6 C1.02 6.99 1.02 6.99 -1 8 C-0.67 5.36 -0.34 2.72 0 0 Z " fill="#E6F0FA" transform="translate(573,709)"/>
<path d="M0 0 C1.65 0 3.3 0 5 0 C4.67 1.98 4.34 3.96 4 6 C3.01 6 2.02 6 1 6 C0.67 4.02 0.34 2.04 0 0 Z " fill="#D3D7DE" transform="translate(318,485)"/>
<path d="M0 0 C0.66 0.33 1.32 0.66 2 1 C0.86280581 4.41158256 -0.04342944 5.11854601 -3 7 C-3.66 7 -4.32 7 -5 7 C-3.70700306 4.11562221 -2.34058637 2.12780579 0 0 Z " fill="#18253E" transform="translate(760,463)"/>
<path d="M0 0 C0 0.33 0 0.66 0 1 C-1.98 1 -3.96 1 -6 1 C-6 1.66 -6 2.32 -6 3 C-8.64 2.67 -11.28 2.34 -14 2 C-14 1.67 -14 1.34 -14 1 C-9.23692563 0.04738513 -4.8333472 -0.08333357 0 0 Z " fill="#454F64" transform="translate(682,948)"/>
<path d="M0 0 C1.61949011 2.57213134 2.04408751 3.67669159 1.625 6.75 C1.41875 7.4925 1.2125 8.235 1 9 C0.34 8.67 -0.32 8.34 -1 8 C-0.67 5.36 -0.34 2.72 0 0 Z " fill="#D8DBE1" transform="translate(346,757)"/>
<path d="M0 0 C2 3 2 3 1.625 6.1875 C1.41875 7.115625 1.2125 8.04375 1 9 C0.01 8.01 -0.98 7.02 -2 6 C-1.34 4.02 -0.68 2.04 0 0 Z " fill="#E7E9EC" transform="translate(264,732)"/>
<path d="M0 0 C0.66 0 1.32 0 2 0 C2.125 5.75 2.125 5.75 1 8 C0.34 8 -0.32 8 -1 8 C-0.67 5.36 -0.34 2.72 0 0 Z " fill="#2768D2" transform="translate(486,721)"/>
<path d="M0 0 C0.33 1.32 0.66 2.64 1 4 C1.99 5.485 1.99 5.485 3 7 C1.02 7.99 1.02 7.99 -1 9 C-0.67 6.03 -0.34 3.06 0 0 Z " fill="#3A7BDF" transform="translate(529,539)"/>
<path d="M0 0 C0 0.66 0 1.32 0 2 C-2.3125 4.1875 -2.3125 4.1875 -5 6 C-5.99 5.67 -6.98 5.34 -8 5 C-3.22727273 0 -3.22727273 0 0 0 Z " fill="#192744" transform="translate(774,455)"/>
<path d="M0 0 C0.33 0 0.66 0 1 0 C1 3.3 1 6.6 1 10 C-0.32 9.67 -1.64 9.34 -3 9 C-2.34 8.01 -1.68 7.02 -1 6 C-0.60986284 4.0103005 -0.26797351 2.00980131 0 0 Z " fill="#0A4FBE" transform="translate(308,449)"/>
<path d="M0 0 C0.66 0.33 1.32 0.66 2 1 C2 1.66 2 2.32 2 3 C0.03852126 4.38938077 -1.96166576 5.7260411 -4 7 C-4 4 -4 4 -2 1.8125 C-1.34 1.214375 -0.68 0.61625 0 0 Z " fill="#155DD1" transform="translate(365,288)"/>
<path d="M0 0 C-0.33 0.99 -0.66 1.98 -1 3 C-2.98 3.33 -4.96 3.66 -7 4 C-7 3.01 -7 2.02 -7 1 C-4.50935112 0.31292445 -2.62113708 0 0 0 Z " fill="#16243E" transform="translate(747,968)"/>
<path d="M0 0 C0.33 0 0.66 0 1 0 C0.67 3.3 0.34 6.6 0 10 C-2 7 -2 7 -1.6875 4.4375 C-1 2 -1 2 0 0 Z " fill="#145DD5" transform="translate(524,907)"/>
<path d="M0 0 C0.33 0.99 0.66 1.98 1 3 C-1.375 4.5625 -1.375 4.5625 -4 6 C-4.66 5.67 -5.32 5.34 -6 5 C-4.02 3.35 -2.04 1.7 0 0 Z " fill="#182540" transform="translate(890,895)"/>
<path d="M0 0 C0.66 0.99 1.32 1.98 2 3 C1.01 4.98 0.02 6.96 -1 9 C-1.66 9 -2.32 9 -3 9 C-2.01 6.03 -1.02 3.06 0 0 Z " fill="#DFE2E6" transform="translate(995,779)"/>
<path d="M0 0 C0 0.66 0 1.32 0 2 C-3.3 1.67 -6.6 1.34 -10 1 C-5.64467851 -1.17766075 -4.53374042 -1.03039555 0 0 Z " fill="#0B1D39" transform="translate(948,576)"/>
<path d="M0 0 C0.33 0.99 0.66 1.98 1 3 C-0.32 3.99 -1.64 4.98 -3 6 C-3.66 5.67 -4.32 5.34 -5 5 C-3.35 3.35 -1.7 1.7 0 0 Z " fill="#1B61CF" transform="translate(346,306)"/>
<path d="M0 0 C0.66 0.33 1.32 0.66 2 1 C1.67 1.99 1.34 2.98 1 4 C-2.0625 5.1875 -2.0625 5.1875 -5 6 C-3.35 4.02 -1.7 2.04 0 0 Z " fill="#2069D8" transform="translate(358,294)"/>
</svg>
